<?xml version="1.0" encoding="UTF-8"?>
<!-- Generator: Adobe Illustrator 19.2.1, SVG Export Plug-In . SVG Version: 6.00 Build 0)  -->
<svg version="1.1" id="Layer_1" xmlns="http://www.w3.org/2000/svg" xmlns:xlink="http://www.w3.org/1999/xlink" x="0px" y="0px" viewBox="0 0 177.2 24" enable-background="new 0 0 177.2 24" xml:space="preserve">
<g>
	<defs>
		<rect id="SVGID_1_" width="177.2" height="24"/>
	</defs>
	<clipPath id="SVGID_2_">
		<use xlink:href="#SVGID_1_" overflow="visible"/>
	</clipPath>
	<path clip-path="url(#SVGID_2_)" fill="#2FA6DF" d="M24,14.6c0.9-2.3,1.8-4.5,2.8-6.8c0.4,2.3,0.9,4.5,1.4,6.8H24z M24.9,0.3   c-3.8,7.8-7.2,15.5-10.3,23.3h4.8c0.7,0,1.3-0.5,1.6-1.1c0.4-1,0.8-2,1.1-3h7.1c0.2,1,0.5,2,0.8,3c0.2,0.7,0.8,1.1,1.4,1.1h4.9   c-2.2-7.8-4-15.5-5.6-23.3H24.9z"/>
	<path clip-path="url(#SVGID_2_)" fill="#2FA6DF" d="M39.2,23.6H45c0.5-7.7,1.2-15.4,2.4-23.1h-5.8C40.5,8.1,39.7,15.9,39.2,23.6"/>
	<path clip-path="url(#SVGID_2_)" fill="#2FA6DF" d="M63.1,8.7c-0.2,1.9-1.5,3-3.5,3h-2.9c0.2-2,0.4-4,0.7-6.1h2.8   C62.2,5.6,63.3,6.6,63.1,8.7C63.1,8.6,63.1,8.6,63.1,8.7 M68.9,8.4c0-0.1,0-0.1,0-0.2c0.3-2.3-0.2-4.1-1.3-5.4   c-1.2-1.5-3.4-2.3-6.4-2.3H50.8c-0.3,1.7-0.5,3.5-0.7,5.2h1.6c-0.8,6-1.3,12-1.7,18h5.8c0.1-2.4,0.3-4.8,0.5-7.2h2.1   c0.9,2.1,1.9,4.2,2.9,6.3c0.2,0.5,0.8,0.8,1.3,0.8h5.6c-1.4-2.8-2.7-5.6-4-8.4C66.7,14,68.5,11.8,68.9,8.4"/>
	<path clip-path="url(#SVGID_2_)" fill="#2FA6DF" d="M84.4,8.8c-0.2,2-1.6,3.2-3.6,3.2h-2c0.2-2.2,0.5-4.2,0.7-6.4h2   C83.6,5.6,84.7,6.6,84.4,8.8C84.4,8.8,84.4,8.8,84.4,8.8 M82.5,0.4h-9.7c-0.2,1.7-0.5,3.5-0.7,5.2h1.6c-0.8,6-1.3,11.9-1.7,18h5.8   c0.1-2.2,0.3-4.5,0.5-6.7h2.2c4.9-0.1,9-2.7,9.7-8.3c0,0,0-0.1,0-0.1C90.8,3.3,87.8,0.4,82.5,0.4"/>
	<path clip-path="url(#SVGID_2_)" fill="#2FA6DF" d="M104.9,9.2h-6.4c0.3-2.9,0.7-5.9,1.1-8.8h-5.8c-1.1,7.7-1.9,15.4-2.4,23.1h5.8   c0.2-3,0.4-6,0.7-8.9h6.4c-0.3,3-0.5,6-0.7,8.9h5.8c0.5-7.7,1.2-15.4,2.4-23.1H106C105.6,3.4,105.2,6.3,104.9,9.2"/>
	<path clip-path="url(#SVGID_2_)" fill="#2FA6DF" d="M149.7,12.1c-2.2-4-4.3-8-6.2-12c-2.7,0.5-2.6,0.4-5.3,0.9   c-1.1,7.6-1.9,15.1-2.3,22.7h5.7c0.2-4,0.6-8.1,1-12.1c2,3.8,4.2,7.6,6.4,11.4c0.3,0.4,0.7,0.7,1.2,0.7h4.4   c0.4-7.7,1.2-15.4,2.4-23.1h-5.7C150.6,4.3,150.1,8.2,149.7,12.1"/>
	<path clip-path="url(#SVGID_2_)" fill="#2FA6DF" d="M6.9,9.9c0.2-1.4,0.3-2.7,0.5-4.1H18c0.2-1.8,0.5-3.6,0.7-5.4H0.8   C0.5,2.2,0.3,4,0,5.8h1.6C0.9,11.7,0.3,17.6,0,23.6h5.8C6,20.7,6.2,17.9,6.4,15h6.2c0.9,0,1.7-0.7,1.7-1.6c0.1-1.2,0.2-2.3,0.4-3.5   H6.9z"/>
	<path clip-path="url(#SVGID_2_)" fill="#2FA6DF" d="M165.4,18.3c0.1-1.3,0.2-2.6,0.3-4h6.3c0.9,0,1.7-0.7,1.8-1.6   c0.1-1.1,0.2-2.2,0.3-3.3h-7.9c0.1-1.3,0.3-2.5,0.5-3.8h9.8c0.2-1.7,0.5-3.5,0.7-5.2h-17.1c-0.3,1.7-0.5,3.5-0.7,5.2h1.6   c-0.8,6-1.3,11.9-1.7,17.9H175c0.1-1.7,0.2-3.5,0.4-5.2H165.4z"/>
	<path clip-path="url(#SVGID_2_)" fill="#2FA6DF" d="M127.9,12.5c0,0.1,0,0.2,0,0.4c-0.4,4-2.2,5.8-4.9,5.8c-2.7,0-4.4-2.4-4-6.4   c0-0.1,0-0.2,0-0.4c0.4-4,2.6-6.4,5.2-6.4c1.3,0,2.3,0.6,3,1.7l-0.8,0.8C127.2,8.9,128.1,10.5,127.9,12.5 M131,3.6l0.8-0.8   C130.2,1,127.9,0,125.1,0c-6,0-11.2,4.9-11.9,11.8c0,0.2,0,0.3-0.1,0.5c-0.7,6.9,3.4,11.7,9.5,11.7c6.1,0,10.5-4.2,11.2-11.1   c0-0.2,0-0.3,0.1-0.5C134.2,8.7,132.8,5.7,131,3.6"/>
</g>
</svg>