<svg xmlns="http://www.w3.org/2000/svg" height="800" width="1200" viewBox="-36.9333 -20.434125 320.0886 122.60475"><path d="M225.7464 69.0891c-13.0282.0846-25.367.1887-28.8078-.117-6.9596-.605-11.6102-5.158-12.1501-11.8575-.3642-4.3969-.3642-8.0393-.0195-11.5061.631-6.5239 6.088-12.7356 12.1696-13.0348 2.179-.117 8.0069-.104 18.5634-.0585l30.72.0585v-12.742s-24.4693-.026-31.8257-.0585c-9.8736-.0455-14.843-.052-17.991.0585-6.9271.2667-12.729 2.7319-17.2365 7.311-4.2734 4.3253-6.8231 11.207-7.2004 18.173-.2146 3.7596-.2861 8.6704 0 11.5908.709 7.493 3.1352 13.373 7.2004 17.4902 4.3449 4.423 10.9598 7.2263 17.243 7.3109 5.158.065 49.8102 0 49.8102 0V68.972s-13.5615.052-20.4756.117M87.0672 20.5147v12.729h30.3103v48.2427h12.794V33.2437h30.3103v-12.729zM73.7789 44.5873c-.0911-6.8556-2.5107-12.7355-7.2003-17.4902-4.8913-4.9758-12.3518-7.0442-17.2366-7.3044-4.2473-.2406-20.983-.1626-24.9116 0-5.5352.2342-9.568 1.8863-11.5908 3.3953-.0194.013-.039.0065-.039-.026V0H0v81.7076h12.781s-.2536-33.4454.0326-37.0878c.5073-6.4718 5.418-11.5582 11.6818-12.1046 5.0213-.4293 20.092-.3122 24.8205.0065 6.4914.4488 11.2851 5.5222 11.6624 12.3583.1236 2.5171-.0058 36.8276-.0058 36.8276h12.807s.0326-34.1804 0-37.1203" fill="#8cc751"/></svg>