<svg xmlns="http://www.w3.org/2000/svg" height="800" width="1200" viewBox="-149.85 -98.88375 1298.7 593.3025"><g style="line-height:125%"><path style="-inkscape-font-specification:'Product Sans'" d="M49.18 386.987H0V4.274h130.431c32.428 0 60.49 10.78 84.187 32.338 23.696 21.56 35.544 48.73 35.544 81.512 0 32.782-11.848 59.952-35.544 81.511-23.696 21.56-51.759 32.34-84.187 32.339h-81.25zm0-202.04h82.312c20.672 0 37.245-6.95 49.719-20.848 12.473-13.897 18.71-29.22 18.71-45.967s-6.237-32.07-18.71-45.967c-12.474-13.898-29.047-20.847-49.72-20.847h-82.31zM346.599 59.343c-6.764 6.765-14.956 10.147-24.574 10.146-9.619 0-17.813-3.384-24.583-10.154-6.77-6.769-10.154-14.966-10.154-24.59s3.385-17.82 10.154-24.59C304.212 3.384 312.406 0 322.025 0c9.618 0 17.812 3.385 24.582 10.154 6.77 6.77 10.154 14.967 10.154 24.59 0 9.625-3.387 17.825-10.162 24.6zm.013 327.644h-49.18V125.081h49.18zm282.593 0h-57.728L506.8 290.241l-63.601 96.746H385.47l92.474-133.09-90.337-128.816H443.2l64.677 92.473 61.464-92.473h57.729l-91.397 128.816zm153.236 8.548c-39.562 0-71.724-13.183-96.486-39.549-24.762-26.365-37.143-59.683-37.142-99.952 0-38.126 12.024-70.91 36.074-98.353 24.049-27.443 54.784-41.164 92.204-41.164 38.844 0 69.935 12.65 93.272 37.95 23.337 25.3 35.005 59.156 35.006 101.567l-.539 9.086H697.977c1.424 26.371 10.244 47.218 26.458 62.54 16.214 15.323 35.19 22.984 56.93 22.984 35.276 0 59.152-14.969 71.625-44.907l43.831 18.172c-8.559 20.314-22.636 37.33-42.232 51.048-19.596 13.719-43.646 20.578-72.148 20.578zm70.55-171.032c-1.067-14.974-7.926-29.231-20.578-42.77-12.653-13.54-31.453-20.309-56.399-20.309-18.172 0-33.937 5.702-47.297 17.103-13.36 11.403-22.535 26.728-27.527 45.976zM999 386.987h-49.18V4.274H999z" font-weight="400" font-size="40" font-family="Product Sans" letter-spacing="0" word-spacing="0" fill="#888b8d"/></g></svg>