<?xml version="1.0" encoding="UTF-8" standalone="no"?>
<!-- Created with Inkscape (http://www.inkscape.org/) -->

<svg
   xmlns:dc="http://purl.org/dc/elements/1.1/"
   xmlns:cc="http://creativecommons.org/ns#"
   xmlns:rdf="http://www.w3.org/1999/02/22-rdf-syntax-ns#"
   xmlns:svg="http://www.w3.org/2000/svg"
   xmlns="http://www.w3.org/2000/svg"
   xmlns:sodipodi="http://sodipodi.sourceforge.net/DTD/sodipodi-0.dtd"
   xmlns:inkscape="http://www.inkscape.org/namespaces/inkscape"
   width="1000"
   height="596.39362"
   id="svg281689"
   version="1.1"
   inkscape:version="0.48.2 r9819"
   sodipodi:docname="A.svg">
  <defs
     id="defs281691">
    <clipPath
       clipPathUnits="userSpaceOnUse"
       id="clipPath3055">
      <path
         inkscape:connector-curvature="0"
         d="m 263.19,605.947 68.896,0 0,41.062 -68.896,0 0,-41.062 z"
         id="path3057" />
    </clipPath>
  </defs>
  <sodipodi:namedview
     id="base"
     pagecolor="#ffffff"
     bordercolor="#666666"
     borderopacity="1.0"
     inkscape:pageopacity="0.0"
     inkscape:pageshadow="2"
     inkscape:zoom="0.35"
     inkscape:cx="441.41717"
     inkscape:cy="-117.22998"
     inkscape:document-units="px"
     inkscape:current-layer="layer1"
     showgrid="false"
     fit-margin-left="0.5"
     fit-margin-bottom="0.5"
     fit-margin-top="0.5"
     fit-margin-right="0.5"
     inkscape:window-width="1058"
     inkscape:window-height="1039"
     inkscape:window-x="855"
     inkscape:window-y="-21"
     inkscape:window-maximized="0" />
  <metadata
     id="metadata281694">
    <rdf:RDF>
      <cc:Work
         rdf:about="">
        <dc:format>image/svg+xml</dc:format>
        <dc:type
           rdf:resource="http://purl.org/dc/dcmitype/StillImage" />
        <dc:title></dc:title>
      </cc:Work>
    </rdf:RDF>
  </metadata>
  <g
     inkscape:label="Layer 1"
     inkscape:groupmode="layer"
     id="layer1"
     transform="translate(66.41717,181.2614)">
    <g
       id="g3051"
       transform="matrix(14.500116,0,0,-14.500116,-3882.2027,9200.934)">
      <g
         id="g3053"
         clip-path="url(#clipPath3055)">
        <g
           id="g3059"
           transform="translate(332.086,605.9463)">
          <path
             d="m 0,0 -68.896,0 0,30.878 c 0,5.599 4.584,10.184 10.185,10.184 L 0,41.062 0,0 z"
             style="fill:#ed1c24;fill-opacity:1;fill-rule:nonzero;stroke:none"
             id="path3061"
             inkscape:connector-curvature="0" />
        </g>
        <g
           id="g3063"
           transform="translate(273.375,629.3974)">
          <path
             d="m 0,0 5.443,0 0,-9.75 4.868,0 0,9.75 5.437,0 0,3.936 L 0,3.936 0,0 z"
             style="fill:#ffffff;fill-opacity:1;fill-rule:nonzero;stroke:none"
             id="path3065"
             inkscape:connector-curvature="0" />
        </g>
        <g
           id="g3067"
           transform="translate(298.6641,622.4658)">
          <path
             d="m 0,0 c -1.131,0 -1.98,0.327 -2.701,0.998 -0.705,0.657 -1.211,1.66 -1.211,3.026 l 0,0.205 c 0,1.359 0.506,2.378 1.211,3.03 0.721,0.676 1.576,0.988 2.701,0.988 2.658,0 3.225,-1.582 3.395,-2.613 l 4.32,0 c -0.106,2.082 -1.098,3.545 -2.5,4.519 -1.395,0.97 -3.016,1.465 -5.168,1.465 -2.645,0 -4.524,-0.589 -6.069,-1.898 C -7.578,8.384 -8.406,6.281 -8.406,4.179 l 0,-0.107 c 0,-2.298 0.721,-4.021 2.316,-5.471 1.492,-1.356 3.668,-1.976 6.086,-1.968 2.143,0 3.983,0.503 5.256,1.46 1.404,1.061 2.363,2.55 2.478,4.514 l -4.31,0 C 3.301,1.782 2.781,0 0,0"
             style="fill:#ffffff;fill-opacity:1;fill-rule:nonzero;stroke:none"
             id="path3069"
             inkscape:connector-curvature="0" />
        </g>
        <g
           id="g3071"
           transform="translate(313.6856,623.4004)">
          <path
             d="m 0,0 0,9.933 -4.687,0 0,-13.681 12.375,0 L 7.688,0 0,0 z"
             style="fill:#ffffff;fill-opacity:1;fill-rule:nonzero;stroke:none"
             id="path3073"
             inkscape:connector-curvature="0" />
        </g>
      </g>
    </g>
  </g>
</svg>
