<?xml version="1.0" standalone="no"?>
<!DOCTYPE svg PUBLIC "-//W3C//DTD SVG 20010904//EN"
 "http://www.w3.org/TR/2001/REC-SVG-20010904/DTD/svg10.dtd">
<svg version="1.0" xmlns="http://www.w3.org/2000/svg"
 width="1546.000000pt" height="237.000000pt" viewBox="0 0 1546.000000 237.000000"
 preserveAspectRatio="xMidYMid meet">

<g transform="translate(0.000000,237.000000) scale(0.100000,-0.100000)"
fill="#000000" stroke="none">
<path d="M10240 2268 c0 -51 -3 -123 -6 -159 l-7 -66 247 1 246 0 0 81 c0 45
3 116 6 158 l7 77 -247 0 -246 0 0 -92z"/>
<path d="M96 2006 c-13 -666 -43 -1386 -71 -1726 -8 -96 -15 -188 -15 -205 l0
-30 563 2 c733 2 821 10 996 93 153 73 263 210 307 380 23 87 23 244 0 330
-48 179 -188 319 -361 362 -27 6 -54 15 -58 19 -5 3 19 16 53 29 180 67 304
216 344 412 53 261 -48 506 -247 598 -142 67 -115 65 -843 66 l-661 1 -7 -331z
m1027 4 c119 -17 208 -80 238 -167 19 -54 17 -159 -5 -221 -26 -75 -84 -145
-148 -176 -93 -45 -171 -56 -423 -56 l-230 0 12 282 c6 156 12 298 12 316 l1
32 238 0 c130 0 268 -5 305 -10z m92 -983 c69 -32 127 -84 158 -142 19 -34 22
-56 22 -146 0 -101 -2 -109 -35 -175 -54 -106 -145 -162 -298 -184 -79 -11
-539 -13 -545 -2 -2 4 2 138 9 297 7 160 13 312 13 338 l1 49 308 -4 307 -3
60 -28z"/>
<path d="M2260 2296 c0 -305 -70 -1809 -103 -2219 l-2 -27 242 -3 241 -2 6
130 c3 72 19 461 36 865 27 641 45 985 65 1231 l5 66 -245 0 -245 0 0 -41z"/>
<path d="M6490 2301 c1 -450 -65 -1959 -96 -2211 l-5 -45 240 0 241 0 0 100
c0 397 65 1888 94 2156 l4 36 -239 0 -239 0 0 -36z"/>
<path d="M3620 1776 c-127 -15 -195 -26 -348 -58 -88 -18 -103 -24 -107 -42
-5 -28 -45 -279 -45 -287 0 -3 49 11 109 32 228 79 502 121 642 100 40 -7 91
-20 113 -30 91 -40 135 -135 101 -217 -41 -100 -102 -128 -450 -209 -432 -101
-614 -204 -707 -403 -56 -117 -47 -275 23 -413 59 -117 164 -190 324 -225 96
-21 369 -22 480 -2 l70 13 22 83 c12 46 31 110 42 143 11 32 19 59 18 59 -1 0
-31 -9 -67 -21 -94 -29 -258 -37 -334 -15 -175 51 -221 238 -88 358 71 64 100
76 467 187 55 17 126 46 158 65 l57 35 0 -25 c0 -56 -31 -588 -40 -689 -5 -60
-10 -122 -10 -137 l0 -27 233 -3 233 -3 13 340 c6 187 16 392 21 455 5 63 14
210 20 325 10 181 9 220 -4 284 -34 164 -133 250 -354 308 -84 22 -122 26
-287 29 -117 2 -234 -2 -305 -10z"/>
<path d="M5484 1775 c-360 -55 -569 -257 -667 -643 -19 -75 -22 -113 -21 -277
0 -173 3 -199 27 -289 41 -154 87 -236 187 -337 52 -53 110 -100 150 -122 190
-105 490 -130 842 -71 96 16 118 29 118 70 0 12 11 81 25 154 34 181 35 171
-22 153 -89 -27 -221 -53 -304 -59 -210 -16 -404 65 -484 202 -61 103 -84 328
-50 486 42 200 184 348 373 387 122 25 318 7 482 -45 45 -14 83 -24 85 -22 5
6 -20 356 -26 362 -11 11 -182 44 -281 55 -126 14 -332 12 -434 -4z"/>
<path d="M11577 1774 c-375 -58 -604 -304 -673 -720 -21 -132 -14 -354 15
-472 52 -206 147 -345 310 -453 151 -100 382 -142 656 -120 139 12 305 38 319
51 8 8 66 315 66 352 0 15 -5 15 -62 -3 -124 -37 -223 -53 -338 -53 -126 -1
-181 10 -273 56 -111 55 -180 146 -211 276 l-14 62 466 2 467 3 7 85 c3 47 9
115 13 153 l6 67 -471 0 -470 0 6 28 c15 62 71 159 125 213 152 152 396 181
719 84 46 -14 85 -24 86 -22 2 1 -3 83 -9 182 l-12 180 -70 18 c-182 45 -477
60 -658 31z"/>
<path d="M7428 1628 c-50 -68 -179 -231 -287 -363 -107 -132 -199 -246 -204
-253 -12 -15 -10 -17 227 -356 99 -143 231 -337 291 -433 l110 -174 262 -2
c172 -1 259 1 255 8 -3 6 -113 156 -243 335 -130 179 -279 389 -333 467 l-96
142 87 103 c48 57 192 223 320 370 128 147 233 270 233 273 0 3 -119 5 -265 5
l-264 0 -93 -122z"/>
<path d="M8170 1742 c0 -5 50 -148 111 -318 140 -393 372 -1057 433 -1239 l46
-140 260 0 260 0 41 100 c72 175 434 993 574 1296 74 161 135 297 135 301 0 4
-110 8 -244 8 l-244 0 -25 -67 c-34 -93 -445 -1141 -460 -1177 -13 -29 -50 83
-360 1106 l-42 138 -242 0 c-134 0 -243 -4 -243 -8z"/>
<path d="M10220 1583 c0 -365 -38 -1143 -73 -1516 -2 -16 16 -17 251 -20 l252
-2 0 75 c1 187 21 903 30 1070 15 267 30 490 36 528 l5 32 -251 0 -250 0 0
-167z"/>
<path d="M12481 1638 c52 -142 418 -1208 490 -1426 l54 -164 232 -1 232 -2
187 520 c103 286 202 561 220 610 30 84 33 88 40 60 4 -16 73 -290 153 -608
l146 -578 240 0 239 0 107 253 c58 139 208 487 334 773 125 286 242 555 261
598 l33 77 -226 -2 -226 -3 -77 -205 c-43 -113 -145 -378 -227 -590 -83 -212
-155 -398 -161 -415 -7 -21 -11 -25 -15 -15 -5 13 -103 388 -280 1073 l-41
157 -237 0 -237 0 -30 -82 c-16 -46 -114 -325 -218 -620 -104 -296 -191 -538
-194 -538 -4 0 -92 278 -196 618 l-190 617 -227 3 -227 2 41 -112z"/>
</g>
</svg>
