<?xml version="1.0" encoding="UTF-8" standalone="no"?>
<!-- Created with Inkscape (http://www.inkscape.org/) -->

<svg
   xmlns:dc="http://purl.org/dc/elements/1.1/"
   xmlns:cc="http://creativecommons.org/ns#"
   xmlns:rdf="http://www.w3.org/1999/02/22-rdf-syntax-ns#"
   xmlns:svg="http://www.w3.org/2000/svg"
   xmlns="http://www.w3.org/2000/svg"
   xmlns:sodipodi="http://sodipodi.sourceforge.net/DTD/sodipodi-0.dtd"
   xmlns:inkscape="http://www.inkscape.org/namespaces/inkscape"
   width="66.145836mm"
   height="67.777542mm"
   viewBox="0 0 66.145836 67.777541"
   version="1.1"
   id="svg8"
   inkscape:version="0.92.2 (5c3e80d, 2017-08-06)"
   sodipodi:docname="bq.svg">
  <title
     id="title913">bq</title>
  <defs
     id="defs2" />
  <sodipodi:namedview
     id="base"
     pagecolor="#ffffff"
     bordercolor="#666666"
     borderopacity="1.0"
     inkscape:pageopacity="0.0"
     inkscape:pageshadow="2"
     inkscape:zoom="1"
     inkscape:cx="146.21901"
     inkscape:cy="81.400934"
     inkscape:document-units="px"
     inkscape:current-layer="layer1"
     showgrid="false"
     fit-margin-top="0"
     fit-margin-left="0"
     fit-margin-right="0"
     fit-margin-bottom="0"
     inkscape:window-width="1920"
     inkscape:window-height="1017"
     inkscape:window-x="1358"
     inkscape:window-y="-8"
     inkscape:window-maximized="1" />
  <metadata
     id="metadata5">
    <rdf:RDF>
      <cc:Work
         rdf:about="">
        <dc:format>image/svg+xml</dc:format>
        <dc:type
           rdf:resource="http://purl.org/dc/dcmitype/StillImage" />
        <dc:title>bq</dc:title>
        <dc:date>28/03/2018</dc:date>
        <dc:creator>
          <cc:Agent>
            <dc:title>BQ</dc:title>
          </cc:Agent>
        </dc:creator>
        <dc:publisher>
          <cc:Agent>
            <dc:title>CMetalCore</dc:title>
          </cc:Agent>
        </dc:publisher>
        <dc:source>https://commons.wikimedia.org/wiki/File:Logo-BQ-CasoDeExito.png</dc:source>
      </cc:Work>
    </rdf:RDF>
  </metadata>
  <g
     inkscape:label="Capa 1"
     inkscape:groupmode="layer"
     id="layer1"
     transform="translate(-30.892836,-129.55305)">
    <g
       id="g911"
       transform="matrix(0.26458334,0,0,0.26458334,22.719106,145.1202)"
       style="stroke-width:3.77952743">
      <g
         transform="matrix(1.9743856,0,0,1.9743856,-30.101536,-192.27609)"
         id="g868"
         style="stroke-width:1.9142803">
        <circle
           style="opacity:1;fill:#6e217f;fill-opacity:1;stroke:none;stroke-width:5.06486702;stroke-linecap:round;stroke-linejoin:miter;stroke-miterlimit:4;stroke-dasharray:none;stroke-dashoffset:0;stroke-opacity:1;paint-order:fill markers stroke"
           id="path826"
           cx="39.809669"
           cy="153.54657"
           r="8.9168329" />
        <circle
           r="8.9168329"
           cy="89.999321"
           cx="63.338688"
           id="circle828"
           style="opacity:1;fill:#b90066;fill-opacity:1;stroke:none;stroke-width:5.06486702;stroke-linecap:round;stroke-linejoin:miter;stroke-miterlimit:4;stroke-dasharray:none;stroke-dashoffset:0;stroke-opacity:1;paint-order:fill markers stroke" />
        <circle
           style="opacity:1;fill:#d5006c;fill-opacity:1;stroke:none;stroke-width:5.06486702;stroke-linecap:round;stroke-linejoin:miter;stroke-miterlimit:4;stroke-dasharray:none;stroke-dashoffset:0;stroke-opacity:1;paint-order:fill markers stroke"
           id="circle830"
           cx="95.678299"
           cy="76.502213"
           r="8.9168329" />
        <circle
           r="8.9168329"
           cy="89.999321"
           cx="126.14703"
           id="circle832"
           style="opacity:1;fill:#e62633;fill-opacity:1;stroke:none;stroke-width:5.06486702;stroke-linecap:round;stroke-linejoin:miter;stroke-miterlimit:4;stroke-dasharray:none;stroke-dashoffset:0;stroke-opacity:1;paint-order:fill markers stroke" />
        <circle
           style="opacity:1;fill:#eb6408;fill-opacity:1;stroke:none;stroke-width:5.06486702;stroke-linecap:round;stroke-linejoin:miter;stroke-miterlimit:4;stroke-dasharray:none;stroke-dashoffset:0;stroke-opacity:1;paint-order:fill markers stroke"
           id="circle834"
           cx="148.59767"
           cy="115.6572"
           r="8.9168329" />
      </g>
      <g
         id="g900"
         style="stroke-width:3.77952743">
        <path
           style="opacity:1;fill:#4a4a4a;fill-opacity:1;stroke:none;stroke-width:37.79528046;stroke-linecap:round;stroke-linejoin:miter;stroke-miterlimit:4;stroke-dasharray:none;stroke-dashoffset:0;stroke-opacity:1;paint-order:fill markers stroke"
           d="m 935.8125,436.37305 a 97.704714,112.41149 0 0 0 -97.70508,112.41015 97.704714,112.41149 0 0 0 97.70508,112.41211 97.704714,112.41149 0 0 0 59.81836,-23.70117 v 108.32227 h 39.38674 V 481.55664 h -21.0469 a 97.704714,112.41149 0 0 0 -78.1582,-45.18359 z m 2.39844,33.28906 a 61.428569,79.642855 0 0 1 61.42968,79.64258 61.428569,79.642855 0 0 1 -61.42968,79.64453 61.428569,79.642855 0 0 1 -61.42774,-79.64453 61.428569,79.642855 0 0 1 61.42774,-79.64258 z"
           transform="scale(0.26458333)"
           id="circle836"
           inkscape:connector-curvature="0" />
        <path
           style="opacity:1;fill:#4a4a4a;fill-opacity:1;stroke:none;stroke-width:37.79528046;stroke-linecap:round;stroke-linejoin:miter;stroke-miterlimit:4;stroke-dasharray:none;stroke-dashoffset:0;stroke-opacity:1;paint-order:fill markers stroke"
           d="m 616.19336,351.75391 v 264.25781 h 22.52539 a 97.704714,112.41149 0 0 0 78.17969,45.18359 97.704714,112.41149 0 0 0 97.70508,-112.41211 97.704714,112.41149 0 0 0 -97.70508,-112.41015 97.704714,112.41149 0 0 0 -61.31641,24.95117 V 351.75391 Z m 98.44922,117.9082 a 61.428569,79.642855 0 0 1 61.42969,79.64258 61.428569,79.642855 0 0 1 -61.42969,79.64453 61.428569,79.642855 0 0 1 -61.42774,-79.64453 61.428569,79.642855 0 0 1 61.42774,-79.64258 z"
           transform="scale(0.26458333)"
           id="path843"
           inkscape:connector-curvature="0" />
      </g>
    </g>
  </g>
</svg>
