<?xml version="1.0" encoding="utf-8"?>
<!-- Generator: Adobe Illustrator 24.0.1, SVG Export Plug-In . SVG Version: 6.00 Build 0)  -->
<svg version="1.1" id="图层_1" xmlns="http://www.w3.org/2000/svg" xmlns:xlink="http://www.w3.org/1999/xlink" x="0px" y="0px"
	 viewBox="0 0 884.4 139.5" style="enable-background:new 0 0 884.4 139.5;" xml:space="preserve">
<g>
	<path style="fill-rule:evenodd;clip-rule:evenodd;fill:#FF8000;" d="M58.9,45.7c-12.5,0-25,0-37.5,0V14.6h37.5V45.7z"/>
	<path style="fill-rule:evenodd;clip-rule:evenodd;fill:#0086FF;" d="M171.3,100.4c0,8.8-4.5,21.2-12.7,28.2
		c-8.1,7.1-15.9,10.8-29.5,10.8H21.4V64.5H59v43.8h62.6c3.4,0,6-0.9,8.6-3.2c2.6-2.3,3.8-5.6,3.8-8.7V56.8c0-2.1-1.3-5.4-3.8-7.8
		c-2.6-2.5-5.8-3.2-9.3-3.2c-16.8,0-33.5,0-50.3,0V14.6H130c11.4,0,19.2,2.8,28.3,10.5s13.1,19.8,13.1,28.5v46.8H171.3z"/>
	<path style="fill-rule:evenodd;clip-rule:evenodd;fill:#198AFF;" d="M609.8,139.5H500c-9.1,0-18.4-2.9-27.3-10.7
		c-8.1-7.1-12.8-18.7-12.8-28.3V53.6c0-9.8,4.4-21.3,13.6-29c9.1-7.6,17-10,28.6-10h108.1v31.2h-99.6c-3.6,0-6.7,1-9.3,3.2
		c-2.5,2.1-3.7,4.7-3.7,7.7v40.6c0,3.1,1.6,5.9,3.7,7.9c2.2,2,5.3,3.1,8.4,3.1h62.8V89.5H535v-25h74.9v75H609.8z"/>
	<path style="fill-rule:evenodd;clip-rule:evenodd;fill:#198AFF;" d="M747.1,139.5H622.9V64.6h124.2v24.9h-86.7v18.8h86.7
		L747.1,139.5L747.1,139.5z M622.9,45.8V14.6h124.2v31.2C747.1,45.8,622.9,45.8,622.9,45.8z"/>
	<rect x="760.2" y="14.6" style="fill-rule:evenodd;clip-rule:evenodd;fill:#FF8000;" width="124.2" height="31.2"/>
	<polygon style="fill-rule:evenodd;clip-rule:evenodd;fill:#198AFF;" points="884.4,139.5 760.2,139.5 760.2,64.6 884.4,64.6 
		884.4,89.5 797.7,89.5 797.7,108.3 884.4,108.3 	"/>
	<path style="fill-rule:evenodd;clip-rule:evenodd;fill:#FF8000;" d="M23.1,19.1c-7.7,0-15.4,0-23.1,0V0h23.1V19.1z"/>
	<path style="fill-rule:evenodd;clip-rule:evenodd;fill:#198AFF;" d="M288.8,139.5h-65.2c-10.3,0-19.5-4.5-26.5-10.7
		c-6.9-6.2-12.7-17.6-12.7-28.4V53.6c0-9.9,4.8-21.1,12.9-28.5c8.1-7.4,18.1-10.4,26.2-10.4h65c7.5,0,12.9,0.8,18.4,3.5
		c-8.5,7.3-14.8,16.6-17.9,28.7c-1.8-0.8-3.3-1-5.4-1H235c-3.6,0-6.3,0.7-9,2.8c-2.5,2.1-4.1,5.1-4.1,8.1v40.6
		c0,3.1,1.5,5.9,3.6,7.8c2.4,2,4.6,3.2,8.2,3.2h51.2c3.5,0,5.7-1.1,8.1-3.1c2.4-2.1,3.8-5.7,3.8-7.8c0-14.1,0-25.3,0-39.4
		c0-11.9,7-25.7,17.7-33.8c8-6.1,18.2-9.5,28.4-9.5h64c10.8,0,19.7,4,27.2,10.8s12.7,17.5,12.7,28.2v46.8c0,10.7-4.6,21.5-13.7,29.2
		c-9.3,7.6-17.5,9.8-27.8,9.8h-63c-7.4,0-11.3-0.9-17.5-3.4c9.2-7.7,14.9-17.7,17.9-28.7c1.8,0.8,3.2,0.9,5.3,0.9h48.7
		c4.2,0,6.6-1,9.2-3.4s3.5-5.4,3.5-8.5V56.6c0-1.9-1.3-5.5-3.9-7.6c-2.7-2.2-5-3.1-8.9-3.1h-48.7c-3.6,0-6.7,0.8-9.3,3.2
		c-2.6,2.5-3.8,5.7-3.8,7.7V95c0,13-6.1,25.4-16.1,33.7C310.7,135.4,300.1,139.5,288.8,139.5z"/>
</g>
</svg>
