<?xml version="1.0" encoding="UTF-8" standalone="no"?>
<svg
   version="1.1"
   width="630"
   height="354.00009"
   id="svg6"
   viewBox="0 0 630 354.00009"
   sodipodi:docname="4b1ed8f6817627ab872452b43c048a01.cdr"
   xmlns:inkscape="http://www.inkscape.org/namespaces/inkscape"
   xmlns:sodipodi="http://sodipodi.sourceforge.net/DTD/sodipodi-0.dtd"
   xmlns="http://www.w3.org/2000/svg"
   xmlns:svg="http://www.w3.org/2000/svg">
  <defs
     id="defs10" />
  <sodipodi:namedview
     id="namedview8"
     pagecolor="#ffffff"
     bordercolor="#666666"
     borderopacity="1.0"
     inkscape:pageshadow="2"
     inkscape:pageopacity="0.0"
     inkscape:pagecheckerboard="0" />
  <path
     d="M 0,0 H 630 V 354.0001 H 0 Z"
     style="fill:#3ec4f5;fill-rule:evenodd"
     id="path2" />
  <path
     d="m 71.1802,145.2101 c 4.9499,-4.7702 12.1799,-5.9701 18.7898,-6.0801 20.6699,-0.0201 41.3399,0.01 62.0101,-0.01 0.0198,4.2698 0.0198,8.5499 0,12.8299 -20.3102,-0.03 -40.6301,0 -60.9404,-0.0201 -2.7096,-0.0199 -5.7398,0.3401 -7.7198,2.3802 -1.3802,1.9398 -1.0596,4.4198 -1.1098,6.66 0.1097,12.32 -0.1202,24.6399 0.1001,36.9499 0.1499,3.82 4.4796,5.1701 7.6796,5.12 20.6702,0.0501 41.3303,0 62.0002,0.0201 0.01,4.28 0.01,8.5498 -0.01,12.8299 -20.6901,-0.04 -41.3802,0 -62.07,-0.0301 -6.58,-0.11 -13.7704,-1.3099 -18.71,-6.05 -3.79,-3.4999 -5.0001,-8.8698 -4.94,-13.85 0.04,-12.6499 -0.0102,-25.31 0.0199,-37.9599 0.07,-4.64 1.4,-9.54 4.9002,-12.7899 z m 90.7399,-6.09 c 5.2999,0.0199 10.5998,-0.0201 15.8998,0.0199 0.0201,19.6299 -0.11,39.2499 0.0601,58.8699 0.07,3.52 4.03,4.9501 7.02,5 16.3499,0.1001 32.72,0.07 49.0799,0.0201 3.4302,0.1001 7.77,-1.9499 7.2802,-6.01 0.03,-19.29 0.04,-38.5699 -0.0102,-57.8599 5.3101,-0.0802 10.62,-0.0102 15.9301,-0.0502 0.0199,19.3 0.01,38.6002 0,57.9002 -0.0201,4.6298 -0.5201,9.7798 -3.92,13.28 -4.0799,4.4099 -10.4601,5.4298 -16.1901,5.5698 -15.69,0.04 -31.3798,0 -47.0698,0.0202 -7.0801,0.1298 -14.6702,-0.1202 -20.81,-4.0802 -4.6602,-2.88 -7.2802,-8.3699 -7.24,-13.7699 -0.0901,-19.6401 -0.03,-39.28 -0.03,-58.9099 z m 107.13,-0.0102 c 21.3199,0.0502 42.63,-0.04 63.9499,0.0502 6.6699,0.3098 14.3201,1.4598 18.7299,7.06 3.9901,5.07 3.0402,11.8899 3.0402,17.8999 -0.0902,4.71 -2.6601,9.29 -6.8502,11.5101 4.93,2.0199 8.2502,6.9899 7.8701,12.3698 -0.3501,6.6501 1.33,14.11 -2.7099,19.9701 -4.58,6.1699 -12.86,7.6399 -20.0702,7.88 -21.3199,0.0601 -42.6399,0 -63.9598,0.0301 -0.0201,-25.5901 -0.03,-51.1801 0,-76.7702 z m 15.9299,12.8302 c -0.01,5.9499 -0.0301,11.8998 0.01,17.85 15.7102,-0.2001 31.4201,0.0499 47.12,-0.1202 2.4001,-0.17 5.6801,-0.2298 6.52,-3.0398 0.7302,-3.4702 0.3401,-7.1102 0.2701,-10.6402 -0.39,-3.3199 -4.1499,-4.0799 -6.9001,-4.03 -15.6798,-0.0499 -31.35,-0.01 -47.0199,-0.0198 z m 0,30.6099 c -0.01,6.8301 -0.01,13.6701 0,20.5101 15.6801,-0.0201 31.3599,0.04 47.0401,-0.0301 2.91,-0.14 6.8998,-0.9901 7.52,-4.3801 0.54,-3.8398 0.32,-7.77 0.1998,-11.6299 -0.4099,-3.6301 -4.7398,-4.36 -7.7,-4.4099 -15.6898,-0.11 -31.3699,0.03 -47.0599,-0.0601 z m 101.2799,-43.2099 c 18.2202,-0.4901 36.46,-0.0802 54.68,-0.2101 7.5302,0.01 16.16,1.55 20.9701,7.9399 3.4699,4.5201 3.2701,10.4902 3.1899,15.9001 -0.0199,11.3499 0.0102,22.71 -0.01,34.0701 0.0901,4.98 -1.6399,10.19 -5.55,13.4499 -5.1199,4.24 -12.0399,5.36 -18.51,5.3801 -16.6699,0.01 -33.3501,0 -50.03,0 -6.45,-0.0102 -13.3699,-1.08 -18.5199,-5.2701 -4.0201,-3.25 -5.8,-8.57 -5.6401,-13.6199 -0.0201,-12.9901 -0.0201,-25.9901 0,-38.9801 -0.1001,-4.5301 1.23,-9.2699 4.5,-12.5399 3.8999,-3.96 9.54,-5.54 14.9199,-6.12 z m 0.2001,13.28 c -2.3499,0.6299 -4,2.9299 -3.7199,5.37 0,13.32 -0.1202,26.6499 0.0598,39.96 0.04,3.6099 4.1301,5.04 7.1501,5.07 16.67,0.11 33.34,0 50.0199,0.0499 2.7201,-0.01 5.8802,-0.1301 7.9302,-2.2 1.58,-1.5301 1.1999,-3.8999 1.3099,-5.8799 -0.11,-12.67 0.1301,-25.3601 -0.11,-38.0301 -0.11,-3.5 -4.03,-4.9099 -6.9999,-4.97 -16.38,-0.1301 -32.7702,0.01 -49.1502,-0.07 -2.1798,0.01 -4.4198,-0.04 -6.4899,0.7001 z m 82.7201,-13.4702 c 31.1799,-0.04 62.3698,-0.04 93.56,0 -0.0201,4.25 -0.0201,8.5102 0,12.7701 -12.78,0.18 -25.5901,-0.26 -38.3502,0.2199 0.1902,21.2502 0.0802,42.5101 0.0502,63.7702 -5.33,-0.11 -10.66,0.0598 -15.99,-0.1001 0.0998,-21.2901 0.0199,-42.58 0.04,-63.8699 -13.1001,-0.0102 -26.2001,0.01 -39.3001,-0.0102 0,-4.2599 0.01,-8.5198 -0.01,-12.78 z"
     style="fill:#fefefe;fill-rule:evenodd"
     id="path4" />
</svg>
