<?xml version="1.0" encoding="iso-8859-1"?>
<!-- Uploaded to: SVG Repo, www.svgrepo.com, Generator: SVG Repo Mixer Tools -->
<svg fill="#000000" version="1.1" id="Layer_1" xmlns="http://www.w3.org/2000/svg" xmlns:xlink="http://www.w3.org/1999/xlink" 
	 viewBox="0 0 512 512" xml:space="preserve">
<g>
	<g>
		<path d="M448.517,68.561c-8.253-4.797-21.675-4.8-29.983-0.004c-8.307,4.796-8.345,12.57-0.091,17.367
			c8.253,4.797,21.668,4.797,29.976,0C456.726,81.128,456.77,73.357,448.517,68.561z"/>
	</g>
</g>
<g>
	<g>
		<path d="M446.015,17.279H65.985L0,127.219v33.43h15.638v-23.444h480.723v15.625H218.146v15.638H512v-41.249L446.015,17.279z
			 M21.632,121.567l53.206-88.65h35.081l-44.339,88.65H21.632z M83.066,121.567l44.339-88.65h236.327l44.338,88.65H83.066z
			 M425.554,121.567l-44.339-88.65h55.945l53.208,88.65H425.554z"/>
	</g>
</g>
<g>
	<g>
		<rect x="126.347" y="152.828" width="63.638" height="15.638"/>
	</g>
</g>
<g>
	<g>
		<rect x="42.245" y="152.828" width="63.241" height="15.638"/>
	</g>
</g>
<g>
	<g>
		<path d="M158.037,229.471l11.058,11.058c47.919-47.921,125.89-47.919,173.81,0l11.058-11.058
			C299.945,175.455,212.054,175.455,158.037,229.471z"/>
	</g>
</g>
<g>
	<g>
		<path d="M255.999,229.065c-19.548,0-37.925,7.612-51.746,21.434l11.058,11.058c10.869-10.869,25.318-16.854,40.688-16.854
			c15.369,0,29.819,5.985,40.687,16.853l11.059-11.056C293.923,236.676,275.546,229.065,255.999,229.065z"/>
	</g>
</g>
<g>
	<g>
		<path d="M227.363,276.31l11.057,11.059c9.694-9.695,25.465-9.695,35.158,0l11.059-11.059
			C268.846,260.521,243.152,260.523,227.363,276.31z"/>
	</g>
</g>
<g>
	<g>
		<path d="M364.216,330.155c-29.036-12.89-67.467-19.99-108.216-19.99c-40.748,0-79.181,7.1-108.215,19.99
			c-31.054,13.789-48.156,32.888-48.156,53.784v37.008c0,20.895,17.102,39.996,48.156,53.783
			c29.035,12.891,67.467,19.991,108.215,19.991s79.18-7.1,108.216-19.991c31.054-13.788,48.156-32.888,48.156-53.783v-37.008
			C412.372,363.043,395.269,343.944,364.216,330.155z M154.13,344.448c27.081-12.023,63.259-18.645,101.869-18.645
			c38.611,0,74.789,6.622,101.87,18.645c24.698,10.966,38.863,25.359,38.863,39.491c0.001,14.131-14.164,28.524-38.863,39.491
			c-27.081,12.023-63.26,18.645-101.87,18.645c-38.611,0-74.789-6.622-101.869-18.645c-24.698-10.967-38.863-25.36-38.863-39.491
			C115.267,369.807,129.432,355.414,154.13,344.448z M396.734,420.947c0,14.131-14.165,28.524-38.863,39.491
			c-27.081,12.023-63.26,18.645-101.87,18.645c-38.611,0-74.789-6.622-101.869-18.645c-24.698-10.967-38.863-25.36-38.863-39.491
			v-4.112c7.985,7.785,18.912,14.846,32.517,20.888c29.035,12.891,67.467,19.991,108.215,19.991c40.748,0,79.18-7.1,108.216-19.991
			c13.606-6.041,24.533-13.103,32.517-20.888V420.947z"/>
	</g>
</g>
<g>
	<g>
		<path d="M255.999,349.046c-39.222,0-68.799,15.001-68.799,34.893c0,19.892,29.577,34.893,68.799,34.893
			c39.222,0,68.799-15.001,68.799-34.893C324.8,364.047,295.221,349.046,255.999,349.046z M255.999,403.194
			c-32.452,0-53.161-11.404-53.161-19.255c0-7.85,20.709-19.255,53.161-19.255c32.452,0,53.161,11.405,53.161,19.255
			C309.161,391.79,288.451,403.194,255.999,403.194z"/>
	</g>
</g>
</svg>