<?xml version="1.0" encoding="iso-8859-1"?>
<!-- Uploaded to: SVG Repo, www.svgrepo.com, Generator: SVG Repo Mixer Tools -->
<!DOCTYPE svg PUBLIC "-//W3C//DTD SVG 1.1//EN" "http://www.w3.org/Graphics/SVG/1.1/DTD/svg11.dtd">
<svg fill="#000000" version="1.1" id="Capa_1" xmlns="http://www.w3.org/2000/svg" xmlns:xlink="http://www.w3.org/1999/xlink" 
	 width="800px" height="800px" viewBox="0 0 28.451 28.451"
	 xml:space="preserve">
<g>
	<g>
		<path d="M19.656,26.874v-0.812V23.86l0.58-0.581h6.715c0.828,0,1.5-0.673,1.5-1.5V1.577c0-0.828-0.672-1.5-1.5-1.5H1.5
			c-0.828,0-1.5,0.672-1.5,1.5v20.202c0,0.827,0.672,1.5,1.5,1.5h7.815l0.608,0.756v2.026v0.812c0,0.828,0.672,1.5,1.5,1.5h6.733
			C18.984,28.374,19.656,27.702,19.656,26.874z M3,3.077h22.451v17.202h-4.377v-6.17c0-0.828-0.672-1.5-1.5-1.5
			c-0.225,0-0.436,0.053-0.627,0.142v-0.325c0-0.828-0.672-1.5-1.5-1.5c-0.723,0-1.325,0.512-1.467,1.192v-0.661
			c0-0.828-0.672-1.5-1.5-1.5c-0.587,0-1.089,0.341-1.336,0.831V7.646c0-0.828-0.672-1.5-1.5-1.5s-1.5,0.672-1.5,1.5v6.458
			l-0.5,0.16v-0.155c0-0.828-0.672-1.5-1.5-1.5s-1.5,0.672-1.5,1.5v2.216v3.105c0,0.153,0.031,0.303,0.076,0.445
			c0.01,0.032,0.02,0.062,0.031,0.094c0.042,0.108,0.095,0.213,0.161,0.31H2.999L3,3.077L3,3.077z"/>
	</g>
</g>
</svg>